<svg xmlns="http://www.w3.org/2000/svg" viewBox="0 0 512 512" width="512" height="512">
  <rect width="512" height="512" fill="#ea653e"/>
  <path fill="#ffffff" fill-rule="evenodd" transform="translate(256 256)" d="M-15.00 -58.00Q-21.00 -128.00 -52.00 -179.00Q-53.50 -182.00 -51.00 -184.00A196 196 0 0 1 51.00 -184.00Q53.50 -182.00 52.00 -179.00Q21.00 -128.00 15.00 -58.00A11.65 11.65 0 0 0 35.99 -47.89Q86.98 -96.23 107.53 -152.26Q108.94 -155.30 112.06 -154.60A196 196 0 0 1 175.65 -74.85Q175.65 -71.65 172.37 -70.95Q113.17 -63.39 54.70 -24.43A11.65 11.65 0 0 0 59.88 -1.72Q129.46 8.01 186.08 -10.87Q189.34 -11.66 190.74 -8.78A196 196 0 0 1 168.04 90.67Q165.53 92.66 162.94 90.53Q120.12 48.96 53.21 27.53A11.65 11.65 0 0 0 38.68 45.75Q74.46 106.21 124.52 138.71Q127.17 140.76 125.78 143.65A196 196 0 0 1 33.89 187.91Q30.77 187.19 30.81 183.84Q36.62 124.44 11.65 58.76A11.65 11.65 0 0 0 -11.65 58.76Q-36.62 124.44 -30.81 183.84Q-30.77 187.19 -33.89 187.91A196 196 0 0 1 -125.78 143.65Q-127.17 140.76 -124.52 138.71Q-74.46 106.21 -38.68 45.75A11.65 11.65 0 0 0 -53.21 27.53Q-120.12 48.96 -162.94 90.53Q-165.53 92.66 -168.04 90.67A196 196 0 0 1 -190.74 -8.78Q-189.34 -11.66 -186.08 -10.87Q-129.46 8.01 -59.88 -1.72A11.65 11.65 0 0 0 -54.70 -24.43Q-113.17 -63.39 -172.37 -70.95Q-175.65 -71.65 -175.65 -74.85A196 196 0 0 1 -112.06 -154.60Q-108.94 -155.30 -107.53 -152.26Q-86.98 -96.23 -35.99 -47.89A11.65 11.65 0 0 0 -15.00 -58.00ZM0 -30A30 30 0 1 0 0 30A30 30 0 1 0 0 -30Z"/>
</svg>
